# xmcd CD database file
#
# Track frame offsets:
#	150
#	22518
#	43323
#	65688
#
# Disc length: 1150 seconds
#
# Revision: 4
# Processed by: cddbd v1.5PL3 Copyright (c) Steve Scherf et al.
# Submitted via: CDex 1.50beta9
#
DISCID=2c047c04
DTITLE=m.c.A.T - Feelin' Good〜恋はパラダイス〜
DYEAR=1900
DGENRE=JPop
TTITLE0=Feelin' Good〜恋はパラダイス〜
TTITLE1=Ever&Ever(and Now)
TTITLE2=Mama Said Knock You Out (For Steering Pleasure)
TTITLE3=Mama Said Knock You Out (7 A.M. Mix)
EXTD=0 9870-73703-2\nCD Single
EXTT0=
EXTT1=
EXTT2=
EXTT3=
PLAYORDER=
